<?xml version="1.0" encoding="UTF-8"?>
<svg xmlns="http://www.w3.org/2000/svg" xmlns:xlink="http://www.w3.org/1999/xlink" width="120px" height="120px" viewBox="0 0 120 119" version="1.1">
<g id="surface1">
<path style=" stroke:none;fill-rule:evenodd;fill:rgb(98.431373%,98.823529%,99.215686%);fill-opacity:1;" d="M -0.0703125 -0.0703125 C 39.929688 -0.0703125 79.929688 -0.0703125 119.929688 -0.0703125 C 119.929688 39.59375 119.929688 79.261719 119.929688 118.929688 C 79.929688 118.929688 39.929688 118.929688 -0.0703125 118.929688 C -0.0703125 79.261719 -0.0703125 39.59375 -0.0703125 -0.0703125 Z M -0.0703125 -0.0703125 "/>
<path style=" stroke:none;fill-rule:evenodd;fill:rgb(42.352942%,42.352942%,86.274511%);fill-opacity:1;" d="M 82.429688 66.867188 C 77.429688 66.867188 72.429688 66.867188 67.429688 66.867188 C 67.429688 71.824219 67.429688 76.78125 67.429688 81.742188 C 72.429688 81.742188 77.429688 81.742188 82.429688 81.742188 C 82.429688 86.699219 82.429688 91.65625 82.429688 96.617188 C 72.429688 96.617188 62.429688 96.617188 52.429688 96.617188 C 52.429688 91.65625 52.429688 86.699219 52.429688 81.742188 C 42.429688 81.742188 32.429688 81.742188 22.429688 81.742188 C 22.429688 66.867188 22.429688 51.992188 22.429688 37.117188 C 27.429688 37.117188 32.429688 37.117188 37.429688 37.117188 C 37.429688 32.15625 37.429688 27.199219 37.429688 22.242188 C 52.429688 22.242188 67.429688 22.242188 82.429688 22.242188 C 82.429688 27.199219 82.429688 32.15625 82.429688 37.117188 C 87.429688 37.117188 92.429688 37.117188 97.429688 37.117188 C 97.429688 42.074219 97.429688 47.03125 97.429688 51.992188 C 92.429688 51.992188 87.429688 51.992188 82.429688 51.992188 C 82.429688 56.949219 82.429688 61.90625 82.429688 66.867188 Z M 82.429688 66.867188 "/>
<path style=" stroke:none;fill-rule:evenodd;fill:rgb(98.431373%,98.823529%,99.215686%);fill-opacity:1;" d="M 67.429688 66.867188 C 62.429688 66.867188 57.429688 66.867188 52.429688 66.867188 C 52.429688 61.90625 52.429688 56.949219 52.429688 51.992188 C 57.429688 51.992188 62.429688 51.992188 67.429688 51.992188 C 67.429688 56.949219 67.429688 61.90625 67.429688 66.867188 Z M 67.429688 66.867188 "/>
<path style=" stroke:none;fill-rule:evenodd;fill:rgb(98.431373%,98.823529%,99.215686%);fill-opacity:1;" d="M 67.429688 66.867188 C 72.429688 66.867188 77.429688 66.867188 82.429688 66.867188 C 82.429688 71.824219 82.429688 76.78125 82.429688 81.742188 C 77.429688 81.742188 72.429688 81.742188 67.429688 81.742188 C 67.429688 76.78125 67.429688 71.824219 67.429688 66.867188 Z M 67.429688 66.867188 "/>
<path style=" stroke:none;fill-rule:evenodd;fill:rgb(42.352942%,42.352942%,86.274511%);fill-opacity:1;" d="M 82.429688 66.867188 C 87.429688 66.867188 92.429688 66.867188 97.429688 66.867188 C 97.429688 71.824219 97.429688 76.78125 97.429688 81.742188 C 92.429688 81.742188 87.429688 81.742188 82.429688 81.742188 C 82.429688 76.78125 82.429688 71.824219 82.429688 66.867188 Z M 82.429688 66.867188 "/>
</g>
</svg>
